<svg xmlns="http://www.w3.org/2000/svg" width="24" height="24" fill="#000" viewBox="0 0 24 24"><path d="M 3.75 8.71875 C 1.667969 8.71875 0 11.46875 0 13.75 C 0 14.449219 0.332031 16.25 1.96875 16.25 C 4.050781 16.25 5.5625 13.441406 5.5625 11.3125 C 5.5625 9.277344 4.34375 8.71875 3.75 8.71875 Z M 9.5625 8.71875 C 7.480469 8.71875 5.8125 11.46875 5.8125 13.75 C 5.8125 14.449219 6.144531 16.25 7.78125 16.25 C 9.863281 16.25 11.375 13.441406 11.375 11.3125 C 11.375 9.277344 10.15625 8.71875 9.5625 8.71875 Z M 12.34375 8.78125 C 12.34375 8.78125 11.59375 10.246094 11.59375 10.8125 L 12.625 10.8125 C 12.703125 10.28125 13.09375 9.71875 13.09375 9.71875 L 15.46875 9.71875 C 14.5625 12.023438 12.523438 12.753906 11.40625 16.09375 L 13.34375 16.09375 C 13.84375 13.488281 17.363281 11.511719 17.34375 8.78125 Z M 17.84375 8.78125 C 17.84375 8.78125 17.777344 9.574219 17.53125 10.1875 L 21.15625 10.1875 C 21.234375 9.972656 21.429688 9.84375 21.65625 9.84375 L 23.46875 9.84375 C 24 9.414063 24 8.78125 24 8.78125 Z M 3.84375 9.40625 C 3.902344 9.40625 4.125 9.515625 4.125 10.15625 C 4.125 12.347656 2.261719 15.5 1.59375 15.5 C 1.351563 15.5 1.28125 15.101563 1.28125 14.8125 C 1.28125 13.683594 2.933594 9.40625 3.84375 9.40625 Z M 9.65625 9.40625 C 9.714844 9.40625 9.9375 9.515625 9.9375 10.15625 C 9.9375 12.347656 8.074219 15.5 7.40625 15.5 C 7.164063 15.5 7.0625 15.101563 7.0625 14.8125 C 7.0625 13.683594 8.746094 9.40625 9.65625 9.40625 Z M 17.3125 10.5625 C 17.3125 10.5625 17.125 10.808594 17.125 11.25 C 17.125 11.632813 17.65625 12.1875 17.65625 12.1875 C 17.65625 12.1875 17.5625 11.828125 17.5625 11.59375 C 17.5625 11.359375 17.71875 11.21875 17.71875 11.21875 L 18.875 11.21875 C 18.875 11.21875 18.460938 12.128906 18.28125 12.375 C 18.101563 12.621094 17.65625 12.6875 17.65625 12.6875 L 15.90625 12.6875 L 15.5625 13.09375 C 15.5625 13.09375 17.390625 13.09375 17.90625 13.09375 C 18.421875 13.09375 18.730469 12.664063 18.875 12.40625 C 19.019531 12.148438 19.441406 11.464844 19.5625 11.25 C 19.683594 11.035156 19.871094 10.96875 20.21875 10.96875 C 20.566406 10.96875 20.8125 10.5625 20.8125 10.5625 Z"/></svg>